<svg xmlns="http://www.w3.org/2000/svg" width="1020" height="580" viewBox="0 0 1020 580" font-family="Arial,sans-serif">
<rect width="1020" height="580" fill="white"/>
<text x="510" y="26" text-anchor="middle" font-size="15" font-weight="bold" fill="#1a1a2e">DPAS f16 GEMM: Roofline Efficiency — 28 Optimization Iterations</text>
<text x="510" y="50" text-anchor="middle" font-size="11" fill="#666">Intel Arc B580 (BMG/Xe2) · 96 TFLOPS f16 peak · Failed/regressed iterations not plotted</text>
<rect x="82.0" y="80" width="283.2" height="432" fill="#dce8ff" opacity="0.6"/>
<text x="223.6" y="74" text-anchor="middle" font-size="9.5" fill="#aaa">SLM Baseline</text>
<rect x="370.5" y="80" width="129.1" height="432" fill="#ffdede" opacity="0.6"/>
<text x="435.1" y="74" text-anchor="middle" font-size="9.5" fill="#aaa">2D Block IO</text>
<rect x="505.1" y="80" width="263.7" height="432" fill="#dcf5dc" opacity="0.6"/>
<text x="636.9" y="74" text-anchor="middle" font-size="9.5" fill="#aaa">WG Shape Tuning</text>
<rect x="774.1" y="80" width="162.8" height="432" fill="#faf8dc" opacity="0.6"/>
<text x="855.5" y="74" text-anchor="middle" font-size="9.5" fill="#aaa">K-Unroll + Wide Reads</text>
<rect x="942.2" y="80" width="47.8" height="432" fill="#f8dcf0" opacity="0.6"/>
<text x="966.1" y="74" text-anchor="middle" font-size="9.5" fill="#aaa">WG Swizzle</text>
<line x1="82" y1="512.0" x2="990" y2="512.0" stroke="#e8e8e8" stroke-width="1"/>
<text x="75" y="516.0" text-anchor="end" font-size="11" fill="#555">0%</text>
<line x1="82" y1="450.3" x2="990" y2="450.3" stroke="#e8e8e8" stroke-width="1"/>
<text x="75" y="454.3" text-anchor="end" font-size="11" fill="#555">10%</text>
<line x1="82" y1="388.6" x2="990" y2="388.6" stroke="#e8e8e8" stroke-width="1"/>
<text x="75" y="392.6" text-anchor="end" font-size="11" fill="#555">20%</text>
<line x1="82" y1="326.9" x2="990" y2="326.9" stroke="#e8e8e8" stroke-width="1"/>
<text x="75" y="330.9" text-anchor="end" font-size="11" fill="#555">30%</text>
<line x1="82" y1="265.1" x2="990" y2="265.1" stroke="#e8e8e8" stroke-width="1"/>
<text x="75" y="269.1" text-anchor="end" font-size="11" fill="#555">40%</text>
<line x1="82" y1="203.4" x2="990" y2="203.4" stroke="#e8e8e8" stroke-width="1"/>
<text x="75" y="207.4" text-anchor="end" font-size="11" fill="#555">50%</text>
<line x1="82" y1="141.7" x2="990" y2="141.7" stroke="#e8e8e8" stroke-width="1"/>
<text x="75" y="145.7" text-anchor="end" font-size="11" fill="#555">60%</text>
<line x1="82" y1="80.0" x2="990" y2="80.0" stroke="#e8e8e8" stroke-width="1"/>
<text x="75" y="84.0" text-anchor="end" font-size="11" fill="#555">70%</text>
<line x1="82" y1="141.7" x2="990" y2="141.7" stroke="#cc3333" stroke-width="1.3" stroke-dasharray="7,4" opacity="0.65"/>
<text x="540" y="136.7" font-size="10" fill="#cc3333">— 60% goal</text>
<line x1="82.0" y1="80" x2="82.0" y2="512" stroke="#ececec" stroke-width="1"/>
<text x="82.0" y="528" text-anchor="middle" font-size="10" fill="#555">1</text>
<line x1="115.6" y1="80" x2="115.6" y2="512" stroke="#ececec" stroke-width="1"/>
<line x1="149.3" y1="80" x2="149.3" y2="512" stroke="#ececec" stroke-width="1"/>
<text x="149.3" y="528" text-anchor="middle" font-size="10" fill="#555">3</text>
<line x1="182.9" y1="80" x2="182.9" y2="512" stroke="#ececec" stroke-width="1"/>
<line x1="216.5" y1="80" x2="216.5" y2="512" stroke="#ececec" stroke-width="1"/>
<line x1="250.1" y1="80" x2="250.1" y2="512" stroke="#ececec" stroke-width="1"/>
<text x="250.1" y="528" text-anchor="middle" font-size="10" fill="#555">6</text>
<line x1="283.8" y1="80" x2="283.8" y2="512" stroke="#ececec" stroke-width="1"/>
<line x1="317.4" y1="80" x2="317.4" y2="512" stroke="#ececec" stroke-width="1"/>
<line x1="351.0" y1="80" x2="351.0" y2="512" stroke="#ececec" stroke-width="1"/>
<text x="351.0" y="528" text-anchor="middle" font-size="10" fill="#555">9</text>
<line x1="384.7" y1="80" x2="384.7" y2="512" stroke="#ececec" stroke-width="1"/>
<line x1="418.3" y1="80" x2="418.3" y2="512" stroke="#ececec" stroke-width="1"/>
<line x1="451.9" y1="80" x2="451.9" y2="512" stroke="#ececec" stroke-width="1"/>
<text x="451.9" y="528" text-anchor="middle" font-size="10" fill="#555">12</text>
<line x1="485.6" y1="80" x2="485.6" y2="512" stroke="#ececec" stroke-width="1"/>
<line x1="519.2" y1="80" x2="519.2" y2="512" stroke="#ececec" stroke-width="1"/>
<line x1="552.8" y1="80" x2="552.8" y2="512" stroke="#ececec" stroke-width="1"/>
<text x="552.8" y="528" text-anchor="middle" font-size="10" fill="#555">15</text>
<line x1="586.4" y1="80" x2="586.4" y2="512" stroke="#ececec" stroke-width="1"/>
<line x1="620.1" y1="80" x2="620.1" y2="512" stroke="#ececec" stroke-width="1"/>
<line x1="653.7" y1="80" x2="653.7" y2="512" stroke="#ececec" stroke-width="1"/>
<text x="653.7" y="528" text-anchor="middle" font-size="10" fill="#555">18</text>
<line x1="687.3" y1="80" x2="687.3" y2="512" stroke="#ececec" stroke-width="1"/>
<line x1="721.0" y1="80" x2="721.0" y2="512" stroke="#ececec" stroke-width="1"/>
<line x1="754.6" y1="80" x2="754.6" y2="512" stroke="#ececec" stroke-width="1"/>
<text x="754.6" y="528" text-anchor="middle" font-size="10" fill="#555">21</text>
<line x1="788.2" y1="80" x2="788.2" y2="512" stroke="#ececec" stroke-width="1"/>
<line x1="821.9" y1="80" x2="821.9" y2="512" stroke="#ececec" stroke-width="1"/>
<line x1="855.5" y1="80" x2="855.5" y2="512" stroke="#ececec" stroke-width="1"/>
<text x="855.5" y="528" text-anchor="middle" font-size="10" fill="#555">24</text>
<line x1="889.1" y1="80" x2="889.1" y2="512" stroke="#ececec" stroke-width="1"/>
<line x1="922.7" y1="80" x2="922.7" y2="512" stroke="#ececec" stroke-width="1"/>
<line x1="956.4" y1="80" x2="956.4" y2="512" stroke="#ececec" stroke-width="1"/>
<text x="956.4" y="528" text-anchor="middle" font-size="10" fill="#555">27</text>
<line x1="990.0" y1="80" x2="990.0" y2="512" stroke="#ececec" stroke-width="1"/>
<rect x="82" y="80" width="908" height="432" fill="none" stroke="#aaa" stroke-width="1.5"/>
<text x="536" y="554" text-anchor="middle" font-size="13" fill="#333">Optimization Iteration #</text>
<text x="18" y="296" text-anchor="middle" font-size="13" fill="#333" transform="rotate(-90,18,296)">Roofline Efficiency (%)</text>
<polyline points="82.00,490.40 115.63,419.43 149.26,407.09 182.89,394.74 216.52,382.40 250.15,363.89 283.78,357.71 317.41,351.54 351.04,345.37 418.30,296.00 451.93,228.11 485.56,221.94 586.44,217.62 653.70,200.96 687.33,172.57 788.22,197.26 855.48,197.26 956.37,147.89 990.00,141.71" fill="none" stroke="#e07020" stroke-width="2" stroke-dasharray="6,3.5" stroke-linejoin="round" stroke-linecap="round"/>
<polyline points="82.00,490.40 115.63,419.43 149.26,407.09 182.89,394.74 216.52,382.40 250.15,363.89 283.78,357.71 317.41,351.54 351.04,345.37 418.30,296.00 451.93,228.11 485.56,221.94 586.44,217.62 653.70,200.96 687.33,172.57 788.22,166.40 855.48,157.76 956.37,130.61 990.00,110.86" fill="none" stroke="#1a55c8" stroke-width="2.5" stroke-linejoin="round" stroke-linecap="round"/>
<circle cx="82.00" cy="490.40" r="3.5" fill="#fff4e6" stroke="#e07020" stroke-width="1.6"/>
<circle cx="115.63" cy="419.43" r="3.5" fill="#fff4e6" stroke="#e07020" stroke-width="1.6"/>
<circle cx="149.26" cy="407.09" r="3.5" fill="#fff4e6" stroke="#e07020" stroke-width="1.6"/>
<circle cx="182.89" cy="394.74" r="3.5" fill="#fff4e6" stroke="#e07020" stroke-width="1.6"/>
<circle cx="216.52" cy="382.40" r="3.5" fill="#fff4e6" stroke="#e07020" stroke-width="1.6"/>
<circle cx="250.15" cy="363.89" r="3.5" fill="#fff4e6" stroke="#e07020" stroke-width="1.6"/>
<circle cx="283.78" cy="357.71" r="3.5" fill="#fff4e6" stroke="#e07020" stroke-width="1.6"/>
<circle cx="317.41" cy="351.54" r="3.5" fill="#fff4e6" stroke="#e07020" stroke-width="1.6"/>
<circle cx="351.04" cy="345.37" r="3.5" fill="#fff4e6" stroke="#e07020" stroke-width="1.6"/>
<circle cx="418.30" cy="296.00" r="3.5" fill="#fff4e6" stroke="#e07020" stroke-width="1.6"/>
<circle cx="451.93" cy="228.11" r="3.5" fill="#fff4e6" stroke="#e07020" stroke-width="1.6"/>
<circle cx="485.56" cy="221.94" r="3.5" fill="#fff4e6" stroke="#e07020" stroke-width="1.6"/>
<circle cx="586.44" cy="217.62" r="3.5" fill="#fff4e6" stroke="#e07020" stroke-width="1.6"/>
<circle cx="653.70" cy="200.96" r="3.5" fill="#fff4e6" stroke="#e07020" stroke-width="1.6"/>
<circle cx="687.33" cy="172.57" r="3.5" fill="#fff4e6" stroke="#e07020" stroke-width="1.6"/>
<circle cx="788.22" cy="197.26" r="3.5" fill="#fff4e6" stroke="#e07020" stroke-width="1.6"/>
<circle cx="855.48" cy="197.26" r="3.5" fill="#fff4e6" stroke="#e07020" stroke-width="1.6"/>
<circle cx="956.37" cy="147.89" r="3.5" fill="#fff4e6" stroke="#e07020" stroke-width="1.6"/>
<circle cx="990.00" cy="141.71" r="3.5" fill="#fff4e6" stroke="#e07020" stroke-width="1.6"/>
<circle cx="82.00" cy="490.40" r="3.5" fill="#e6f0ff" stroke="#1a55c8" stroke-width="1.6"/>
<circle cx="115.63" cy="419.43" r="3.5" fill="#e6f0ff" stroke="#1a55c8" stroke-width="1.6"/>
<circle cx="149.26" cy="407.09" r="3.5" fill="#e6f0ff" stroke="#1a55c8" stroke-width="1.6"/>
<circle cx="182.89" cy="394.74" r="3.5" fill="#e6f0ff" stroke="#1a55c8" stroke-width="1.6"/>
<circle cx="216.52" cy="382.40" r="3.5" fill="#e6f0ff" stroke="#1a55c8" stroke-width="1.6"/>
<circle cx="250.15" cy="363.89" r="3.5" fill="#e6f0ff" stroke="#1a55c8" stroke-width="1.6"/>
<circle cx="283.78" cy="357.71" r="3.5" fill="#e6f0ff" stroke="#1a55c8" stroke-width="1.6"/>
<circle cx="317.41" cy="351.54" r="3.5" fill="#e6f0ff" stroke="#1a55c8" stroke-width="1.6"/>
<circle cx="351.04" cy="345.37" r="3.5" fill="#e6f0ff" stroke="#1a55c8" stroke-width="1.6"/>
<circle cx="418.30" cy="296.00" r="3.5" fill="#e6f0ff" stroke="#1a55c8" stroke-width="1.6"/>
<circle cx="451.93" cy="228.11" r="3.5" fill="#e6f0ff" stroke="#1a55c8" stroke-width="1.6"/>
<circle cx="485.56" cy="221.94" r="3.5" fill="#e6f0ff" stroke="#1a55c8" stroke-width="1.6"/>
<circle cx="586.44" cy="217.62" r="3.5" fill="#e6f0ff" stroke="#1a55c8" stroke-width="1.6"/>
<circle cx="653.70" cy="200.96" r="3.5" fill="#e6f0ff" stroke="#1a55c8" stroke-width="1.6"/>
<circle cx="687.33" cy="172.57" r="3.5" fill="#e6f0ff" stroke="#1a55c8" stroke-width="1.6"/>
<circle cx="788.22" cy="166.40" r="3.5" fill="#e6f0ff" stroke="#1a55c8" stroke-width="1.6"/>
<circle cx="855.48" cy="157.76" r="3.5" fill="#e6f0ff" stroke="#1a55c8" stroke-width="1.6"/>
<circle cx="956.37" cy="130.61" r="3.5" fill="#e6f0ff" stroke="#1a55c8" stroke-width="1.6"/>
<circle cx="990.00" cy="110.86" r="3.5" fill="#e6f0ff" stroke="#1a55c8" stroke-width="1.6"/>
<circle cx="990.00" cy="110.86" r="7" fill="#5588ee" stroke="#1a55c8" stroke-width="2.2"/>
<circle cx="990.00" cy="141.71" r="7" fill="#ff8830" stroke="#e07020" stroke-width="2.2"/>
<line x1="418.3" y1="287.0" x2="418.3" y2="244.0" stroke="#bbb" stroke-width="1" stroke-dasharray="2.5,2"/>
<text x="422.3" y="242.0" font-size="9" fill="#888">2D Block IO</text>
<text x="422.3" y="252.0" font-size="9" fill="#888">+18pp jump</text>
<line x1="687.3" y1="163.6" x2="687.3" y2="132.6" stroke="#bbb" stroke-width="1" stroke-dasharray="2.5,2"/>
<text x="691.3" y="130.6" font-size="9" fill="#888">WG 4×8</text>
<text x="691.3" y="140.6" font-size="9" fill="#888">(512 threads)</text>
<text x="979.0" y="100.9" text-anchor="end" font-size="11.5" font-weight="bold" fill="#1a55c8">65%</text>
<text x="979.0" y="161.7" text-anchor="end" font-size="11.5" font-weight="bold" fill="#e07020">60%</text>
<text x="979.0" y="129.3" text-anchor="end" font-size="8.5" fill="#999">← v28</text>
<rect x="89" y="83" width="150" height="62" rx="5" fill="rgba(255,255,255,0.93)" stroke="#ccc" stroke-width="1"/>
<line x1="97" y1="100" x2="117" y2="100" stroke="#1a55c8" stroke-width="2.5"/>
<circle cx="107" cy="100" r="3.5" fill="#e6f0ff" stroke="#1a55c8" stroke-width="1.6"/>
<text x="123" y="104" font-size="11" fill="#222">K = 2560</text>
<line x1="97" y1="121" x2="117" y2="121" stroke="#e07020" stroke-width="2" stroke-dasharray="5,3"/>
<circle cx="107" cy="121" r="3.5" fill="#fff4e6" stroke="#e07020" stroke-width="1.6"/>
<text x="123" y="125" font-size="11" fill="#222">K = 4096</text>
<text x="96" y="143" font-size="9.5" fill="#888">★ v28 (SWIZZLE=2): Final Champion</text>
</svg>